<svg xmlns="http://www.w3.org/2000/svg" xml:space="preserve" style="fill-rule:evenodd;clip-rule:evenodd;stroke-linejoin:round;stroke-miterlimit:2" viewBox="0 0 1600 1600"><path d="M0 0h1600v1600H0z" style="fill:none"/><clipPath id="a"><path d="M0 0h1600v1600H0z"/></clipPath><g clip-path="url(#a)"><path d="M0 0h1600v1600H0z" style="fill:#0c223c"/><path d="M1350.93 545.862c-14.25 9.459-23.05 16.042-32.53 21.473-120.75 69.221-241.6 138.262-362.405 207.4-5.929 3.393-11.947 6.797-17.321 10.958-13.953 10.796-14.083 22.524-.717 33.816 5.167 4.365 11.262 7.731 17.191 11.118 105.632 60.425 211.062 121.179 317.162 180.803 20.36 11.45 29.97 25.17 28.54 48.62-1.62 26.45-.38 53.08-.38 85.09-13.84-6.43-21.37-9.3-28.29-13.22-108.5-61.53-216.65-123.68-325.52-184.566-38.388-21.473-57.994-50.986-55.882-95.361 1.716-36.086.963-72.321.306-108.468-.639-35.218 14.987-60.845 45.077-78.195 65.219-37.606 130.679-74.826 196.049-112.188 30.37-17.361 61.25-33.931 90.98-52.305 17.92-11.076 33.27-10.538 50.79.562 23.43 14.852 48.05 27.897 76.95 44.463M249.07 1059.7c11.416-8.1 16.53-12.43 22.266-15.71 112.339-64.052 224.805-127.887 337.113-192.001 32.691-18.662 64.746-19.252 97.455.028 33.411 19.693 67.269 38.66 100.983 57.85 29.77 16.951 44.448 42.325 44.42 76.227-.092 111.516-.285 223.036.066 334.546.053 16.97-5.964 28.48-21.232 36.54-20.172 10.66-39.429 23-59.548 33.76-18.122 9.7-22.758 6.51-22.719-13.65.274-136.37.597-272.75.622-409.126.003-13.491-.833-27.163-3.164-40.43-2.843-16.163-14.161-20.976-29.007-15.14-10.565 4.158-20.519 9.97-30.421 15.609-102.452 58.353-205.077 116.417-307.037 175.607-19.69 11.43-35.77 11.93-54.778-.54-22.565-14.81-46.701-27.28-75.019-43.57M849.373 203.78c1.329 11.344 2.57 17.025 2.573 22.709.067 130.294-.011 260.586-.039 390.88-.01 33.466-13.082 59.984-42.827 77.203-36.196 20.945-72.335 42.005-109.029 62.069-28.034 15.328-57.635 15.754-85.377.156-98.098-55.157-195.598-111.351-293.524-166.81-14.846-8.408-21.809-19.766-21.524-36.648.495-29.204.137-58.425.137-92.377 10.91 4.876 18.305 7.475 24.997 11.275 121.004 68.714 241.912 137.588 362.859 206.397 49.612 28.222 60.708 22.347 60.876-33.691.348-115.988.703-231.982-.362-347.963-.235-25.637 7.065-42.592 31.317-53.866 23.001-10.691 44.381-24.777 69.923-39.334" style="fill:#00daab;fill-rule:nonzero"/><path d="m748.59 1131.16 102.784-47.33s.607-98.763.599-99.09c-.825-30.253-13.263-44.311-13.661-44.633-51.179-41.486-101.346-34.476-116.307-29.535-14.962 4.942 29.584-12.729 26.535 59.182-.033.787.05 161.406.05 161.406Z" style="fill:url(#b)"/><path d="m748.59 474.173 102.784 47.328s.607 98.766.598 99.094c-.825 30.253-13.263 44.31-13.66 44.633-51.179 41.486-101.346 34.475-116.308 29.534-14.961-4.941 29.585 12.729 26.536-59.181-.033-.788.05-161.408.05-161.408Z" style="fill:url(#c)"/><path d="m1115.53 922.693-89.92 68.281s-84.276-47.28-84.558-47.447c-26.046-15.412-35.927-33.383-36.015-33.887-11.413-64.885 17.068-108.878 29.091-119.977 12.023-11.1-21.297 21.123 43.046 53.378.704.353 138.356 79.652 138.356 79.652Z" style="fill:url(#d)"/></g><defs><linearGradient id="b" x1="0" x2="1" y1="0" y2="0" gradientTransform="rotate(-90 926.968 139.792) scale(243.045)" gradientUnits="userSpaceOnUse"><stop offset="0" style="stop-color:#00daab;stop-opacity:.5"/><stop offset="1" style="stop-color:#007b60;stop-opacity:.5"/></linearGradient><linearGradient id="c" x1="0" x2="1" y1="0" y2="0" gradientTransform="matrix(0 243.045 243.045 0 787.175 538.579)" gradientUnits="userSpaceOnUse"><stop offset="0" style="stop-color:#00daab;stop-opacity:.25"/><stop offset="1" style="stop-color:#007b60;stop-opacity:.25"/></linearGradient><linearGradient id="d" x1="0" x2="1" y1="0" y2="0" gradientTransform="scale(-243.045 243.045) rotate(-29.053 5.213 10.178)" gradientUnits="userSpaceOnUse"><stop offset="0" style="stop-color:#00daab;stop-opacity:.35"/><stop offset="1" style="stop-color:#007b60;stop-opacity:.35"/></linearGradient></defs></svg>