<?xml version="1.0" encoding="UTF-8"?>
<svg id="Layer_1" xmlns="http://www.w3.org/2000/svg" viewBox="0 0 499 540">
  <defs>
    <style>
      .cls-1 {
        fill: none;
      }

      .cls-2 {
        opacity: .97;
      }

      .cls-2, .cls-3 {
        fill: #fff;
        fill-rule: evenodd;
        isolation: isolate;
      }

      .cls-3 {
        opacity: .98;
      }
    </style>
  </defs>
  <path id="b" class="cls-1" d="M0,0h499v540H0V0Z"/>
  <path class="cls-2" d="M125.42,92.89h139.48c-.13,14.81,0,29.61.39,44.41,14.01,17.77,28.16,35.44,42.47,52.99,16.36-20.13,32.59-40.39,48.7-60.78.52-.52.52-1.04,0-1.56-3.62-3.58-6.48-7.47-8.57-11.69,12.94-3.97,25.8-8.25,38.57-12.86,1.27-.38,2.57-.51,3.9-.39.13,2.35,0,4.69-.39,7.01-3.38,15.33-6.75,30.65-10.13,45.97-1.79-1.01-3.34-2.3-4.68-3.9-2.38-2.64-4.46-5.5-6.23-8.57-20.22,25.25-40.35,50.58-60.39,75.97-.74.48-1.39.35-1.95-.39-13.58-17.54-27.34-34.95-41.3-52.21-.26,30.13-.52,60.26-.78,90.39-14.75,23.12-19.69,48.58-14.8,76.36,2.42,9.09,5.02,18.18,7.79,27.27,1.75,4.75,4.09,9.17,7.01,13.25.06,13.82.84,27.59,2.34,41.3,1.69,3.77,4.42,6.49,8.18,8.18,8.19,2.06,16.5,3.23,24.93,3.51.77,2.81,1.03,5.67.78,8.57h-127.01c.13-6.76,0-13.51-.39-20.26-4.01,5.57-8.56,10.63-13.64,15.19-6.78,4.17-14.06,7.03-21.82,8.57-14.29.65-28.58.52-42.86-.39-28.77-5.82-50.72-21.14-65.84-45.97-12.73-25.47-17.93-52.48-15.58-81.04.71-20.24,5.9-39.2,15.58-56.88,16.33-26.69,40.09-42.14,71.3-46.36,10.65-.52,21.3-.52,31.95,0,9.09.52,17.66,2.86,25.71,7.01,2.97,3.23,6.22,6.22,9.74,8.96,1.79,2.84,3.61,5.7,5.45,8.57-.94-33.2-1.46-66.45-1.56-99.74.02-6.86-.76-13.62-2.34-20.26-1.88-4.73-5.39-7.46-10.52-8.18-10.3-1.83-20.69-2.87-31.17-3.12-.71-.29-1.36-.68-1.95-1.17-.39-2.58-.52-5.18-.39-7.79ZM140.23,221.46c21.25.6,31.77,11.51,31.56,32.73.52,40.78.52,81.56,0,122.34-.14,9.64-.66,19.25-1.56,28.83-3.38,14.79-12.73,22.06-28.05,21.82-8.88.17-15.63-3.47-20.26-10.91-3.82-6.26-6.42-13.01-7.79-20.26-4.07-20.41-6.02-41.06-5.84-61.95-.73-27.95,1.47-55.61,6.62-82.99,1.77-7.68,4.89-14.69,9.35-21.04,4.18-5.15,9.5-8,15.97-8.57Z"/>
  <path class="cls-3" d="M378.66,209.77c26.46-1.57,50.36,5.31,71.69,20.65,12.97,13.58,15.97,29.04,8.96,46.36-7.34,9.71-17.08,15.56-29.22,17.53-38.7.64-54.55-18.19-47.53-56.49-1.33-17.17-10.16-22.75-26.49-16.75-6.72,3.09-11.27,8.15-13.64,15.19-3.24,8.93-4.93,18.15-5.06,27.66,1.53,34.83,10.75,67.42,27.66,97.79,21.62,35.4,49.54,41.25,83.76,17.53,15.37-14.75,23.94-32.81,25.71-54.15,2.6-.03,5.06.49,7.4,1.56-4.99,37.72-24.86,64.34-59.61,79.87-32.52,14.29-65.5,15.59-98.96,3.9-31.56-13.09-51.17-36.34-58.83-69.74-8.96-48.17,7.27-85.18,48.7-111.04,20.43-11.47,42.25-18.09,65.45-19.87Z"/>
</svg>