<?xml version="1.0" encoding="UTF-8"?>
<svg id="Layer_1" xmlns="http://www.w3.org/2000/svg" viewBox="0 0 1393.84 273.71">
  <defs>
    <style>
      .cls-1 {
        opacity: .94;
      }

      .cls-1, .cls-2, .cls-3, .cls-4, .cls-5, .cls-6, .cls-7 {
        fill: #13213b;
      }

      .cls-1, .cls-2, .cls-3, .cls-4, .cls-5, .cls-6, .cls-7, .cls-8, .cls-9, .cls-10, .cls-11, .cls-12, .cls-13 {
        isolation: isolate;
      }

      .cls-1, .cls-2, .cls-3, .cls-4, .cls-5, .cls-6, .cls-7, .cls-8, .cls-9, .cls-10, .cls-11, .cls-12, .cls-13, .cls-14 {
        fill-rule: evenodd;
      }

      .cls-2 {
        opacity: .92;
      }

      .cls-3, .cls-13 {
        opacity: .94;
      }

      .cls-4, .cls-12 {
        opacity: .93;
      }

      .cls-5, .cls-8 {
        opacity: .95;
      }

      .cls-6 {
        opacity: .98;
      }

      .cls-7 {
        opacity: .96;
      }

      .cls-8, .cls-9, .cls-10, .cls-11, .cls-12, .cls-13, .cls-14 {
        fill: #003c44;
      }

      .cls-9 {
        opacity: .97;
      }

      .cls-10 {
        opacity: .94;
      }

      .cls-11 {
        opacity: .95;
      }
    </style>
  </defs>
  <path class="cls-9" d="M88.69,0h110.09c-.1,11.69,0,23.37.31,35.06,11.06,14.03,22.23,27.97,33.52,41.82,12.91-15.89,25.73-31.88,38.44-47.97.41-.41.41-.82,0-1.23-2.85-2.82-5.11-5.9-6.77-9.23,10.22-3.13,20.36-6.51,30.45-10.15,1-.3,2.03-.41,3.08-.31.1,1.86,0,3.7-.31,5.54-2.66,12.1-5.33,24.2-8,36.29-1.41-.79-2.64-1.82-3.69-3.08-1.88-2.09-3.52-4.34-4.92-6.77-15.96,19.93-31.85,39.92-47.67,59.97-.58.38-1.1.28-1.54-.31-10.72-13.85-21.58-27.59-32.6-41.21-.2,23.78-.41,47.56-.62,71.35-11.64,18.25-15.54,38.34-11.69,60.28,1.91,7.17,3.96,14.35,6.15,21.53,1.38,3.75,3.23,7.23,5.54,10.46.04,10.91.66,21.78,1.85,32.6,1.33,2.97,3.49,5.12,6.46,6.46,6.47,1.63,13.03,2.55,19.68,2.77.61,2.22.81,4.47.62,6.77h-100.25c.1-5.33,0-10.67-.31-15.99-3.17,4.4-6.76,8.4-10.76,11.99-5.36,3.3-11.1,5.55-17.22,6.77-11.28.51-22.56.41-33.83-.31-22.71-4.59-40.03-16.69-51.97-36.29C2.68,216.69-1.42,195.37.43,172.83c.56-15.98,4.66-30.94,12.3-44.9,12.89-21.07,31.65-33.26,56.28-36.6,8.41-.41,16.81-.41,25.22,0,7.17.41,13.94,2.25,20.3,5.54,2.35,2.55,4.91,4.91,7.69,7.07,1.42,2.24,2.85,4.5,4.31,6.77-.74-26.21-1.15-52.45-1.23-78.73.02-5.42-.6-10.75-1.85-15.99-1.49-3.73-4.25-5.89-8.3-6.46-8.13-1.45-16.33-2.26-24.6-2.46-.56-.23-1.08-.54-1.54-.92-.31-2.04-.41-4.09-.31-6.15ZM100.38,101.48c16.77.47,25.08,9.08,24.91,25.83.41,32.19.41,64.38,0,96.56-.11,7.61-.52,15.19-1.23,22.76-2.66,11.67-10.05,17.42-22.14,17.22-7.01.14-12.34-2.74-15.99-8.61-3.01-4.94-5.06-10.27-6.15-15.99-3.21-16.11-4.75-32.41-4.61-48.9-.58-22.06,1.16-43.9,5.23-65.5,1.4-6.06,3.86-11.59,7.38-16.61,3.3-4.07,7.5-6.32,12.61-6.77Z"/>
  <path class="cls-14" d="M443.58,8h1.85v263.86h-1.85V8Z"/>
  <path class="cls-6" d="M288.58,92.26c20.89-1.24,39.75,4.19,56.58,16.3,10.24,10.72,12.6,22.92,7.07,36.6-5.79,7.66-13.48,12.28-23.06,13.84-30.55.5-43.05-14.36-37.52-44.59-1.05-13.55-8.02-17.96-20.91-13.22-5.3,2.44-8.89,6.43-10.76,11.99-2.56,7.05-3.89,14.32-4,21.83,1.21,27.49,8.49,53.22,21.83,77.19,17.07,27.94,39.11,32.55,66.12,13.84,12.13-11.64,18.89-25.89,20.3-42.75,2.05-.02,4,.39,5.84,1.23-3.94,29.77-19.62,50.78-47.05,63.04-25.67,11.28-51.71,12.3-78.11,3.08-24.91-10.33-40.39-28.68-46.44-55.05-7.07-38.02,5.74-67.24,38.44-87.65,16.13-9.05,33.35-14.28,51.66-15.68Z"/>
  <path class="cls-1" d="M985.44,72.79c23.07-.63,39.78,9.21,50.13,29.52,1.32,3.64,2.44,7.33,3.38,11.07-4.49.62-9,.82-13.53.62-3.43-13.99-12.04-23.11-25.83-27.37-22.94-4.77-39.44,3.32-49.51,24.29-5.49,15.87-5.28,31.66.62,47.36,9.61,18.7,24.89,26.59,45.82,23.68,14.7-2.92,24.54-11.42,29.52-25.52,4.51-.82,9.02-.82,13.53,0-5.57,20.33-18.69,32.73-39.36,37.21-28.67,4.79-49.27-5.78-61.81-31.68-6.97-18.65-6.97-37.3,0-55.97,9.18-20.36,24.87-31.44,47.05-33.21Z"/>
  <path class="cls-2" d="M1225.93,74.64c8.26-.86,12.26,2.83,11.99,11.07-2.87,6.84-7.69,8.58-14.45,5.23-3.57-3.14-4.5-6.93-2.77-11.38,1.27-2.2,3.02-3.84,5.23-4.92Z"/>
  <path class="cls-11" d="M513.69,75.25c14.15-.1,28.29,0,42.44.31,23.72,3.43,39.4,16.45,47.05,39.06,4.61,17.93,2.76,35.15-5.54,51.66-9.67,15.14-23.51,23.86-41.52,26.14-14.14,1.07-28.29,1.17-42.44.31v-117.48ZM525.99,86.94c9.23-.1,18.45,0,27.68.31,25.96,4.65,39.09,20.23,39.36,46.74-.18,24.57-12.07,39.94-35.67,46.13-10.43.87-20.89,1.17-31.37.92v-94.1Z"/>
  <path class="cls-12" d="M701.28,75.25h12.3v118.09h-12.3v-118.09Z"/>
  <path class="cls-8" d="M733.27,75.25h11.69c-.1,15.59,0,31.16.31,46.74,4.6-6.02,10.65-9.82,18.14-11.38,23.27-3.7,38.34,5.63,45.21,27.98,3.91,16.36,1.03,31.32-8.61,44.9-9.88,9.65-21.67,13.24-35.37,10.76-7.96-1.36-14.42-5.15-19.37-11.38-.31,3.48-.41,6.96-.31,10.46h-11.69v-118.09ZM766.48,121.38c16.4-1.53,26.55,5.65,30.45,21.53,1.9,9.56.87,18.79-3.08,27.68-6.86,10.83-16.59,14.83-29.22,11.99-10.95-3.78-17.2-11.47-18.76-23.06-1.91-11.37.55-21.63,7.38-30.75,3.87-3.52,8.27-5.98,13.22-7.38Z"/>
  <path class="cls-4" d="M1381.53,75.25h12.3v118.09h-12.3v-118.09Z"/>
  <path class="cls-7" d="M1260.98,86.94h11.69v24.6h15.99v11.07h-15.99c-.26,18.06.05,36.1.92,54.12.49,1.89,1.61,3.23,3.38,4,4.88.84,9.8,1.14,14.76.92.19,3.65-.02,7.23-.62,10.76-7.6.96-14.98.14-22.14-2.46-4.51-2.97-7.07-7.18-7.69-12.61-.31-18.24-.41-36.49-.31-54.74h-15.38v-11.07h15.38v-24.6Z"/>
  <path class="cls-13" d="M645.93,109.7c9.5-.92,18.31,1.03,26.45,5.84,5.68,4.5,9.07,10.34,10.15,17.53.31,20.09.41,40.18.31,60.28h-11.69c.1-3.08,0-6.16-.31-9.23-9.75,9.42-21.34,12.8-34.75,10.15-16.19-4.19-22.65-14.54-19.37-31.06,2-5.89,5.59-10.51,10.76-13.84,4.5-2.25,9.21-3.89,14.15-4.92,8-1.03,15.99-2.05,23.99-3.08,2.15-.41,4-1.33,5.54-2.77-.66-9.38-5.58-15.01-14.76-16.91-6.42-.95-12.57-.12-18.45,2.46-5.33,3.58-7.79,8.6-7.38,15.07-3.92.2-7.81,0-11.69-.62-.9-10.61,3.2-18.7,12.3-24.29,4.79-2.24,9.71-3.78,14.76-4.61ZM669.92,150.91c2.35,11.85-1.34,21.58-11.07,29.22-8.03,3.97-16.23,4.38-24.6,1.23-6.56-5.06-7.89-11.31-4-18.76,3.65-4.24,8.27-6.8,13.84-7.69,8.78-.84,17.39-2.17,25.83-4Z"/>
  <path class="cls-3" d="M1077.08,109.7c9.5-.92,18.31,1.03,26.45,5.84,5.68,4.5,9.07,10.34,10.15,17.53.31,20.09.41,40.18.31,60.28h-11.69c.1-3.08,0-6.16-.31-9.23-9.75,9.42-21.34,12.8-34.75,10.15-16.19-4.19-22.65-14.54-19.37-31.06,2-5.89,5.59-10.51,10.76-13.84,4.5-2.25,9.21-3.89,14.15-4.92,8-1.03,15.99-2.05,23.99-3.08,2.15-.41,4-1.33,5.54-2.77-.66-9.38-5.58-15.01-14.76-16.91-6.41-.95-12.57-.12-18.45,2.46-5.33,3.58-7.79,8.6-7.38,15.07-3.92.2-7.81,0-11.69-.62-.9-10.61,3.2-18.7,12.3-24.29,4.79-2.24,9.71-3.78,14.76-4.61ZM1101.07,150.91c2.35,11.85-1.34,21.58-11.07,29.22-8.03,3.97-16.23,4.38-24.6,1.23-6.56-5.06-7.89-11.31-4-18.76,3.65-4.24,8.27-6.8,13.84-7.69,8.78-.84,17.39-2.17,25.83-4Z"/>
  <path class="cls-5" d="M1166.88,109.7c21.37-1.16,35.01,8.48,40.9,28.91,3.91,16.36,1.03,31.32-8.61,44.9-10.87,10.43-23.69,13.81-38.44,10.15-6.61-1.9-12.04-5.49-16.3-10.76-.31,14.15-.41,28.29-.31,42.44h-11.69v-113.78h11.69c-.1,3.28,0,6.57.31,9.84,6.05-6.77,13.53-10.66,22.45-11.69ZM1165.65,121.38c16.4-1.53,26.55,5.65,30.45,21.53,1.9,9.56.87,18.79-3.08,27.68-6.86,10.83-16.59,14.83-29.22,11.99-10.96-3.79-17.22-11.48-18.76-23.06-1.6-9.83.04-19.05,4.92-27.68,3.97-5.42,9.2-8.9,15.68-10.46Z"/>
  <path class="cls-3" d="M1326.79,109.7c9.5-.92,18.31,1.03,26.45,5.84,5.68,4.5,9.07,10.34,10.15,17.53.31,20.09.41,40.18.31,60.28h-11.69c.1-3.08,0-6.16-.31-9.23-9.75,9.42-21.34,12.8-34.75,10.15-16.19-4.19-22.65-14.54-19.37-31.06,2-5.89,5.59-10.51,10.76-13.84,4.5-2.25,9.21-3.89,14.15-4.92,8-1.03,15.99-2.05,23.99-3.08,2.15-.41,4-1.33,5.54-2.77-.66-9.38-5.58-15.01-14.76-16.91-6.41-.95-12.57-.12-18.45,2.46-5.33,3.58-7.79,8.6-7.38,15.07-3.92.2-7.81,0-11.69-.62-.9-10.61,3.2-18.7,12.3-24.29,4.79-2.24,9.71-3.78,14.76-4.61ZM1350.78,150.91c2.35,11.85-1.34,21.58-11.07,29.22-8.03,3.97-16.23,4.38-24.6,1.23-6.56-5.06-7.89-11.31-4-18.76,3.65-4.24,8.27-6.8,13.84-7.69,8.78-.84,17.39-2.17,25.83-4Z"/>
  <path class="cls-10" d="M810.76,111.54c4.26-.19,8.46.01,12.61.62,8.17,22.06,16.58,43.99,25.22,65.81,8.2-22.05,16.1-44.19,23.68-66.43,4.32-.2,8.63,0,12.92.62-12.23,34.1-24.63,68.13-37.21,102.1-4.93,8.41-12.31,12.51-22.14,12.3-4.02-.3-8.01-.71-11.99-1.23v-10.46c3.59.18,7.17.39,10.76.62,6.06.97,10.37-1.29,12.92-6.77,1.54-4.21,3.08-8.41,4.61-12.61-10.52-28.18-20.97-56.37-31.37-84.57Z"/>
  <path class="cls-4" d="M1222.85,111.54h12.3v81.19h-12.3v-81.19Z"/>
</svg>